# xmcd
#
# Track frame offsets:
#	150
#	12877
#	31220
#	47722
#	61317
#	78532
#	102077
#	120050
#	135802
#	157580
#	175497
#	196415
#
# Disc length: 2960 seconds
#
# Revision: 1
# Processed by: cddbd v1.5.2PL0 Copyright (c) Steve Scherf et al.
# Submitted via: audiograbber 1.83.01
#
DISCID=830b8e0c
DTITLE=The Bear Cats - Too Much Change
DYEAR=1998
DGENRE=Blues
TTITLE0=Sticks and Stones
TTITLE1=Love Light
TTITLE2=You Can't Get There from Here
TTITLE3=634-5789
TTITLE4=The More You Get
TTITLE5=Too Much Change
TTITLE6=Itchy Feet
TTITLE7=300 lbs
TTITLE8=Back Door Man
TTITLE9=99 and a Half
TTITLE10=Up from the Skies
TTITLE11=Modulator
EXTD=
EXTT0=
EXTT1=
EXTT2=
EXTT3=
EXTT4=
EXTT5=
EXTT6=
EXTT7=
EXTT8=
EXTT9=
EXTT10=
EXTT11=
PLAYORDER=
